<?xml version="1.0" encoding="UTF-8" standalone="no"?>
<!DOCTYPE svg PUBLIC "-//W3C//DTD SVG 1.1//EN"
 "http://www.w3.org/Graphics/SVG/1.1/DTD/svg11.dtd">
<!-- Generated by graphviz version 10.0.1 (20240210.2158)
 -->
<!-- Title: NetworkDiagram Pages: 1 -->
<svg width="1565pt" height="836pt"
 viewBox="0.00 0.00 1565.00 835.50" xmlns="http://www.w3.org/2000/svg" xmlns:xlink="http://www.w3.org/1999/xlink">
<g id="graph0" class="graph" transform="scale(1 1) rotate(0) translate(4 831.5)">
<title>NetworkDiagram</title>
<polygon fill="white" stroke="none" points="-4,4 -4,-831.5 1561,-831.5 1561,4 -4,4"/>
<g id="clust1" class="cluster">
<title>cluster_Rack_Room</title>
<path fill="#efdca8" stroke="black" d="M20,-195.5C20,-195.5 637,-195.5 637,-195.5 643,-195.5 649,-201.5 649,-207.5 649,-207.5 649,-620 649,-620 649,-626 643,-632 637,-632 637,-632 20,-632 20,-632 14,-632 8,-626 8,-620 8,-620 8,-207.5 8,-207.5 8,-201.5 14,-195.5 20,-195.5"/>
<text text-anchor="middle" x="328.5" y="-614.7" font-family="Times,serif" font-size="14.00">Rack Room</text>
</g>
<g id="clust2" class="cluster">
<title>cluster_Rack_Room_Network_Rack_2</title>
<path fill="#cea8ef" stroke="black" d="M529,-485C529,-485 629,-485 629,-485 635,-485 641,-491 641,-497 641,-497 641,-587.5 641,-587.5 641,-593.5 635,-599.5 629,-599.5 629,-599.5 529,-599.5 529,-599.5 523,-599.5 517,-593.5 517,-587.5 517,-587.5 517,-497 517,-497 517,-491 523,-485 529,-485"/>
<text text-anchor="middle" x="579" y="-582.2" font-family="Times,serif" font-size="14.00">Network Rack 2</text>
</g>
<g id="clust3" class="cluster">
<title>cluster_Rack_Room_Network_Rack_3</title>
<path fill="#efdca8" stroke="black" d="M348,-203.5C348,-203.5 452,-203.5 452,-203.5 458,-203.5 464,-209.5 464,-215.5 464,-215.5 464,-306 464,-306 464,-312 458,-318 452,-318 452,-318 348,-318 348,-318 342,-318 336,-312 336,-306 336,-306 336,-215.5 336,-215.5 336,-209.5 342,-203.5 348,-203.5"/>
<text text-anchor="middle" x="400" y="-300.7" font-family="Times,serif" font-size="14.00">Network Rack 3</text>
</g>
<g id="clust4" class="cluster">
<title>cluster_Rack_Room_AHT_Enclsoure</title>
<path fill="#dcefa8" stroke="black" d="M28,-352.5C28,-352.5 497,-352.5 497,-352.5 503,-352.5 509,-358.5 509,-364.5 509,-364.5 509,-587.5 509,-587.5 509,-593.5 503,-599.5 497,-599.5 497,-599.5 28,-599.5 28,-599.5 22,-599.5 16,-593.5 16,-587.5 16,-587.5 16,-364.5 16,-364.5 16,-358.5 22,-352.5 28,-352.5"/>
<text text-anchor="middle" x="262.5" y="-582.2" font-family="Times,serif" font-size="14.00">AHT Enclsoure</text>
</g>
<g id="clust5" class="cluster">
<title>cluster_Bldg_1</title>
<path fill="#efeea8" stroke="black" d="M281,-664.5C281,-664.5 765,-664.5 765,-664.5 771,-664.5 777,-670.5 777,-676.5 777,-676.5 777,-807.5 777,-807.5 777,-813.5 771,-819.5 765,-819.5 765,-819.5 281,-819.5 281,-819.5 275,-819.5 269,-813.5 269,-807.5 269,-807.5 269,-676.5 269,-676.5 269,-670.5 275,-664.5 281,-664.5"/>
<text text-anchor="middle" x="523" y="-802.2" font-family="Times,serif" font-size="14.00">Bldg 1</text>
</g>
<g id="clust6" class="cluster">
<title>cluster_Bldg_1_Retail_Area_SE</title>
<path fill="#baa8ef" stroke="black" d="M289,-672.5C289,-672.5 389,-672.5 389,-672.5 395,-672.5 401,-678.5 401,-684.5 401,-684.5 401,-775 401,-775 401,-781 395,-787 389,-787 389,-787 289,-787 289,-787 283,-787 277,-781 277,-775 277,-775 277,-684.5 277,-684.5 277,-678.5 283,-672.5 289,-672.5"/>
<text text-anchor="middle" x="339" y="-769.7" font-family="Times,serif" font-size="14.00">Retail Area SE</text>
</g>
<g id="clust7" class="cluster">
<title>cluster_Bldg_1_Retail_Area_SW</title>
<path fill="#a8efd9" stroke="black" d="M421,-672.5C421,-672.5 499,-672.5 499,-672.5 505,-672.5 511,-678.5 511,-684.5 511,-684.5 511,-775 511,-775 511,-781 505,-787 499,-787 499,-787 421,-787 421,-787 415,-787 409,-781 409,-775 409,-775 409,-684.5 409,-684.5 409,-678.5 415,-672.5 421,-672.5"/>
<text text-anchor="middle" x="460" y="-769.7" font-family="Times,serif" font-size="14.00">Retail Area SW</text>
</g>
<g id="clust8" class="cluster">
<title>cluster_Bldg_1_165_Lounge_Mezz</title>
<path fill="#efa8e8" stroke="black" d="M531,-672.5C531,-672.5 627,-672.5 627,-672.5 633,-672.5 639,-678.5 639,-684.5 639,-684.5 639,-775 639,-775 639,-781 633,-787 627,-787 627,-787 531,-787 531,-787 525,-787 519,-781 519,-775 519,-775 519,-684.5 519,-684.5 519,-678.5 525,-672.5 531,-672.5"/>
<text text-anchor="middle" x="579" y="-769.7" font-family="Times,serif" font-size="14.00">165 Lounge Mezz</text>
</g>
<g id="clust9" class="cluster">
<title>cluster_Bldg_1_Retail_Area_NE</title>
<path fill="#efa8b5" stroke="black" d="M659,-672.5C659,-672.5 757,-672.5 757,-672.5 763,-672.5 769,-678.5 769,-684.5 769,-684.5 769,-775 769,-775 769,-781 763,-787 757,-787 757,-787 659,-787 659,-787 653,-787 647,-781 647,-775 647,-775 647,-684.5 647,-684.5 647,-678.5 653,-672.5 659,-672.5"/>
<text text-anchor="middle" x="708" y="-769.7" font-family="Times,serif" font-size="14.00">Retail Area NE</text>
</g>
<g id="clust10" class="cluster">
<title>cluster_Bldg_2</title>
<path fill="#efa8c1" stroke="black" d="M945,-664.5C945,-664.5 1311,-664.5 1311,-664.5 1317,-664.5 1323,-670.5 1323,-676.5 1323,-676.5 1323,-807.5 1323,-807.5 1323,-813.5 1317,-819.5 1311,-819.5 1311,-819.5 945,-819.5 945,-819.5 939,-819.5 933,-813.5 933,-807.5 933,-807.5 933,-676.5 933,-676.5 933,-670.5 939,-664.5 945,-664.5"/>
<text text-anchor="middle" x="1128" y="-802.2" font-family="Times,serif" font-size="14.00">Bldg 2</text>
</g>
<g id="clust11" class="cluster">
<title>cluster_Bldg_2_Quad_2_Center</title>
<path fill="#e4a8ef" stroke="black" d="M953,-672.5C953,-672.5 1061,-672.5 1061,-672.5 1067,-672.5 1073,-678.5 1073,-684.5 1073,-684.5 1073,-775 1073,-775 1073,-781 1067,-787 1061,-787 1061,-787 953,-787 953,-787 947,-787 941,-781 941,-775 941,-775 941,-684.5 941,-684.5 941,-678.5 947,-672.5 953,-672.5"/>
<text text-anchor="middle" x="1007" y="-769.7" font-family="Times,serif" font-size="14.00">Quad 2 Center</text>
</g>
<g id="clust12" class="cluster">
<title>cluster_Bldg_2_Quad_1_SW</title>
<path fill="#efa8d9" stroke="black" d="M1093,-672.5C1093,-672.5 1201,-672.5 1201,-672.5 1207,-672.5 1213,-678.5 1213,-684.5 1213,-684.5 1213,-775 1213,-775 1213,-781 1207,-787 1201,-787 1201,-787 1093,-787 1093,-787 1087,-787 1081,-781 1081,-775 1081,-775 1081,-684.5 1081,-684.5 1081,-678.5 1087,-672.5 1093,-672.5"/>
<text text-anchor="middle" x="1147" y="-769.7" font-family="Times,serif" font-size="14.00">Quad 1 SW</text>
</g>
<g id="clust13" class="cluster">
<title>cluster_Bldg_2_Quad_3_SE</title>
<path fill="#b5a8ef" stroke="black" d="M1233,-672.5C1233,-672.5 1303,-672.5 1303,-672.5 1309,-672.5 1315,-678.5 1315,-684.5 1315,-684.5 1315,-775 1315,-775 1315,-781 1309,-787 1303,-787 1303,-787 1233,-787 1233,-787 1227,-787 1221,-781 1221,-775 1221,-775 1221,-684.5 1221,-684.5 1221,-678.5 1227,-672.5 1233,-672.5"/>
<text text-anchor="middle" x="1268" y="-769.7" font-family="Times,serif" font-size="14.00">Quad 3 SE</text>
</g>
<g id="clust14" class="cluster">
<title>cluster_Bldg_3</title>
<path fill="#a8efd9" stroke="black" d="M1343,-664.5C1343,-664.5 1531,-664.5 1531,-664.5 1537,-664.5 1543,-670.5 1543,-676.5 1543,-676.5 1543,-807.5 1543,-807.5 1543,-813.5 1537,-819.5 1531,-819.5 1531,-819.5 1343,-819.5 1343,-819.5 1337,-819.5 1331,-813.5 1331,-807.5 1331,-807.5 1331,-676.5 1331,-676.5 1331,-670.5 1337,-664.5 1343,-664.5"/>
<text text-anchor="middle" x="1437" y="-802.2" font-family="Times,serif" font-size="14.00">Bldg 3</text>
</g>
<g id="clust15" class="cluster">
<title>cluster_Bldg_3_Warehouse</title>
<path fill="#efa8c1" stroke="black" d="M1351,-672.5C1351,-672.5 1421,-672.5 1421,-672.5 1427,-672.5 1433,-678.5 1433,-684.5 1433,-684.5 1433,-775 1433,-775 1433,-781 1427,-787 1421,-787 1421,-787 1351,-787 1351,-787 1345,-787 1339,-781 1339,-775 1339,-775 1339,-684.5 1339,-684.5 1339,-678.5 1345,-672.5 1351,-672.5"/>
<text text-anchor="middle" x="1386" y="-769.7" font-family="Times,serif" font-size="14.00">Warehouse</text>
</g>
<g id="clust16" class="cluster">
<title>cluster_Bldg_3_Front_Office</title>
<path fill="#efa8bf" stroke="black" d="M1453,-672.5C1453,-672.5 1523,-672.5 1523,-672.5 1529,-672.5 1535,-678.5 1535,-684.5 1535,-684.5 1535,-775 1535,-775 1535,-781 1529,-787 1523,-787 1523,-787 1453,-787 1453,-787 1447,-787 1441,-781 1441,-775 1441,-775 1441,-684.5 1441,-684.5 1441,-678.5 1447,-672.5 1453,-672.5"/>
<text text-anchor="middle" x="1488" y="-769.7" font-family="Times,serif" font-size="14.00">Front Office</text>
</g>
<g id="clust17" class="cluster">
<title>cluster_Register_Counter</title>
<path fill="#efeda8" stroke="black" d="M797,-664.5C797,-664.5 913,-664.5 913,-664.5 919,-664.5 925,-670.5 925,-676.5 925,-676.5 925,-807.5 925,-807.5 925,-813.5 919,-819.5 913,-819.5 913,-819.5 797,-819.5 797,-819.5 791,-819.5 785,-813.5 785,-807.5 785,-807.5 785,-676.5 785,-676.5 785,-670.5 791,-664.5 797,-664.5"/>
<text text-anchor="middle" x="855" y="-802.2" font-family="Times,serif" font-size="14.00">Register Counter</text>
</g>
<g id="clust18" class="cluster">
<title>cluster_Register_Counter_Wall</title>
<path fill="#a8d7ef" stroke="black" d="M805,-672.5C805,-672.5 905,-672.5 905,-672.5 911,-672.5 917,-678.5 917,-684.5 917,-684.5 917,-775 917,-775 917,-781 911,-787 905,-787 905,-787 805,-787 805,-787 799,-787 793,-781 793,-775 793,-775 793,-684.5 793,-684.5 793,-678.5 799,-672.5 805,-672.5"/>
<text text-anchor="middle" x="855" y="-769.7" font-family="Times,serif" font-size="14.00">Wall</text>
</g>
<g id="clust19" class="cluster">
<title>cluster_Terabithia</title>
<path fill="#efa8d5" stroke="black" d="M1088,-477C1088,-477 1206,-477 1206,-477 1212,-477 1218,-483 1218,-489 1218,-489 1218,-620 1218,-620 1218,-626 1212,-632 1206,-632 1206,-632 1088,-632 1088,-632 1082,-632 1076,-626 1076,-620 1076,-620 1076,-489 1076,-489 1076,-483 1082,-477 1088,-477"/>
<text text-anchor="middle" x="1147" y="-614.7" font-family="Times,serif" font-size="14.00">Terabithia</text>
</g>
<g id="clust20" class="cluster">
<title>cluster_Terabithia_Bathroom</title>
<path fill="#c8efa8" stroke="black" d="M1096,-485C1096,-485 1198,-485 1198,-485 1204,-485 1210,-491 1210,-497 1210,-497 1210,-587.5 1210,-587.5 1210,-593.5 1204,-599.5 1198,-599.5 1198,-599.5 1096,-599.5 1096,-599.5 1090,-599.5 1084,-593.5 1084,-587.5 1084,-587.5 1084,-497 1084,-497 1084,-491 1090,-485 1096,-485"/>
<text text-anchor="middle" x="1147" y="-582.2" font-family="Times,serif" font-size="14.00">Bathroom</text>
</g>
<g id="clust21" class="cluster">
<title>cluster_Terabithia2</title>
<path fill="#e8efa8" stroke="black" d="M1419,-477C1419,-477 1537,-477 1537,-477 1543,-477 1549,-483 1549,-489 1549,-489 1549,-620 1549,-620 1549,-626 1543,-632 1537,-632 1537,-632 1419,-632 1419,-632 1413,-632 1407,-626 1407,-620 1407,-620 1407,-489 1407,-489 1407,-483 1413,-477 1419,-477"/>
<text text-anchor="middle" x="1478" y="-614.7" font-family="Times,serif" font-size="14.00">Terabithia2</text>
</g>
<g id="clust22" class="cluster">
<title>cluster_Terabithia2_Bathroom_2</title>
<path fill="#c9efa8" stroke="black" d="M1427,-485C1427,-485 1529,-485 1529,-485 1535,-485 1541,-491 1541,-497 1541,-497 1541,-587.5 1541,-587.5 1541,-593.5 1535,-599.5 1529,-599.5 1529,-599.5 1427,-599.5 1427,-599.5 1421,-599.5 1415,-593.5 1415,-587.5 1415,-587.5 1415,-497 1415,-497 1415,-491 1421,-485 1427,-485"/>
<text text-anchor="middle" x="1478" y="-582.2" font-family="Times,serif" font-size="14.00">Bathroom 2</text>
</g>
<g id="clust23" class="cluster">
<title>cluster_Terabithia3</title>
<path fill="#ada8ef" stroke="black" d="M361,-8C361,-8 605,-8 605,-8 611,-8 617,-14 617,-20 617,-20 617,-151 617,-151 617,-157 611,-163 605,-163 605,-163 361,-163 361,-163 355,-163 349,-157 349,-151 349,-151 349,-20 349,-20 349,-14 355,-8 361,-8"/>
<text text-anchor="middle" x="483" y="-145.7" font-family="Times,serif" font-size="14.00">Terabithia3</text>
</g>
<g id="clust24" class="cluster">
<title>cluster_Terabithia3_Bathroom_2</title>
<path fill="#a8efd5" stroke="black" d="M369,-16C369,-16 597,-16 597,-16 603,-16 609,-22 609,-28 609,-28 609,-118.5 609,-118.5 609,-124.5 603,-130.5 597,-130.5 597,-130.5 369,-130.5 369,-130.5 363,-130.5 357,-124.5 357,-118.5 357,-118.5 357,-28 357,-28 357,-22 363,-16 369,-16"/>
<text text-anchor="middle" x="483" y="-113.2" font-family="Times,serif" font-size="14.00">Bathroom 2</text>
</g>
<!-- Ganahl SW167F -->
<g id="node1" class="node">
<title>Ganahl SW167F</title>
<polygon fill="none" stroke="black" points="632.75,-567 525.25,-567 525.25,-493 632.75,-493 632.75,-567"/>
<text text-anchor="middle" x="579" y="-549.7" font-family="Times,serif" font-size="14.00">Ganahl SW167F</text>
<text text-anchor="middle" x="579" y="-533.2" font-family="Times,serif" font-size="14.00">FS&#45;248E&#45;FPOE</text>
<text text-anchor="middle" x="579" y="-516.7" font-family="Times,serif" font-size="14.00">AC712E00D2F0</text>
<text text-anchor="middle" x="579" y="-500.2" font-family="Times,serif" font-size="14.00">IP TBD</text>
</g>
<!-- Ganahl SW167E -->
<g id="node20" class="node">
<title>Ganahl SW167E</title>
<polygon fill="none" stroke="black" points="601.12,-98 492.88,-98 492.88,-24 601.12,-24 601.12,-98"/>
<text text-anchor="middle" x="547" y="-80.7" font-family="Times,serif" font-size="14.00">Ganahl SW167E</text>
<text text-anchor="middle" x="547" y="-64.2" font-family="Times,serif" font-size="14.00">FS&#45;248E&#45;FPOE</text>
<text text-anchor="middle" x="547" y="-47.7" font-family="Times,serif" font-size="14.00">deadfacebc</text>
<text text-anchor="middle" x="547" y="-31.2" font-family="Times,serif" font-size="14.00">tbd</text>
</g>
<!-- Ganahl SW167F&#45;&gt;Ganahl SW167E -->
<g id="edge1" class="edge">
<title>Ganahl SW167F&#45;&gt;Ganahl SW167E</title>
<path fill="none" stroke="black" d="M576.52,-492.74C570.79,-409.2 556.67,-203.17 550.26,-109.6"/>
<polygon fill="black" stroke="black" points="553.76,-109.48 549.59,-99.74 546.78,-109.96 553.76,-109.48"/>
<text text-anchor="middle" x="615.88" y="-329.2" font-family="Times,serif" font-size="14.00">Port 51 &#45;&gt; Port 52</text>
</g>
<!-- Ganahl SW167H -->
<g id="node2" class="node">
<title>Ganahl SW167H</title>
<polygon fill="none" stroke="black" points="456,-285.5 344,-285.5 344,-211.5 456,-211.5 456,-285.5"/>
<text text-anchor="middle" x="400" y="-268.2" font-family="Times,serif" font-size="14.00">Ganahl SW167H</text>
<text text-anchor="middle" x="400" y="-251.7" font-family="Times,serif" font-size="14.00">FS&#45;248E&#45;FPOE</text>
<text text-anchor="middle" x="400" y="-235.2" font-family="Times,serif" font-size="14.00">AC712E00CA4A</text>
<text text-anchor="middle" x="400" y="-218.7" font-family="Times,serif" font-size="14.00">IP TBD</text>
</g>
<!-- Ganahl SW167G -->
<g id="node21" class="node">
<title>Ganahl SW167G</title>
<polygon fill="none" stroke="black" points="474.88,-98 365.12,-98 365.12,-24 474.88,-24 474.88,-98"/>
<text text-anchor="middle" x="420" y="-80.7" font-family="Times,serif" font-size="14.00">Ganahl SW167G</text>
<text text-anchor="middle" x="420" y="-64.2" font-family="Times,serif" font-size="14.00">FS&#45;248E&#45;FPOE</text>
<text text-anchor="middle" x="420" y="-47.7" font-family="Times,serif" font-size="14.00">deadfacebc</text>
<text text-anchor="middle" x="420" y="-31.2" font-family="Times,serif" font-size="14.00">tbd</text>
</g>
<!-- Ganahl SW167H&#45;&gt;Ganahl SW167G -->
<g id="edge2" class="edge">
<title>Ganahl SW167H&#45;&gt;Ganahl SW167G</title>
<path fill="none" stroke="black" d="M403.9,-211.29C407.03,-182.28 411.45,-141.32 414.86,-109.64"/>
<polygon fill="black" stroke="black" points="418.32,-110.25 415.91,-99.94 411.36,-109.5 418.32,-110.25"/>
<text text-anchor="middle" x="458.88" y="-174.2" font-family="Times,serif" font-size="14.00">Port 51 &#45;&gt; Port 52</text>
</g>
<!-- CrestronSwitch -->
<g id="node3" class="node">
<title>CrestronSwitch</title>
<polygon fill="none" stroke="black" points="378.5,-434.5 269.5,-434.5 269.5,-360.5 378.5,-360.5 378.5,-434.5"/>
<text text-anchor="middle" x="324" y="-417.2" font-family="Times,serif" font-size="14.00">CrestronSwitch</text>
<text text-anchor="middle" x="324" y="-400.7" font-family="Times,serif" font-size="14.00">CEN&#45;SW&#45;POE&#45;5</text>
<text text-anchor="middle" x="324" y="-384.2" font-family="Times,serif" font-size="14.00">NONE</text>
<text text-anchor="middle" x="324" y="-367.7" font-family="Times,serif" font-size="14.00">NO IP</text>
</g>
<!-- CrestronSwitch&#45;&gt;Ganahl SW167H -->
<g id="edge3" class="edge">
<title>CrestronSwitch&#45;&gt;Ganahl SW167H</title>
<path fill="none" stroke="black" d="M342.79,-360.16C352.79,-340.82 365.2,-316.81 375.91,-296.1"/>
<polygon fill="black" stroke="black" points="378.99,-297.76 380.47,-287.27 372.77,-294.55 378.99,-297.76"/>
<text text-anchor="middle" x="406.5" y="-329.2" font-family="Times,serif" font-size="14.00">Port 5 &#45;&gt; Port 14</text>
</g>
<!-- WattBox -->
<g id="node4" class="node">
<title>WattBox</title>
<polygon fill="none" stroke="black" points="130.38,-567 23.63,-567 23.63,-493 130.38,-493 130.38,-567"/>
<text text-anchor="middle" x="77" y="-549.7" font-family="Times,serif" font-size="14.00">WattBox</text>
<text text-anchor="middle" x="77" y="-533.2" font-family="Times,serif" font-size="14.00">WB&#45;250&#45;IPW&#45;2</text>
<text text-anchor="middle" x="77" y="-516.7" font-family="Times,serif" font-size="14.00">143FC3037CBB</text>
<text text-anchor="middle" x="77" y="-500.2" font-family="Times,serif" font-size="14.00">10.2.32.50</text>
</g>
<!-- WattBox&#45;&gt;CrestronSwitch -->
<g id="edge4" class="edge">
<title>WattBox&#45;&gt;CrestronSwitch</title>
<path fill="none" stroke="black" d="M119.31,-492.52C126.09,-487.13 133.14,-481.79 140,-477 176.17,-451.77 221.72,-432.26 258.45,-419"/>
<polygon fill="black" stroke="black" points="259.36,-422.39 267.63,-415.76 257.03,-415.79 259.36,-422.39"/>
<text text-anchor="middle" x="208" y="-455.7" font-family="Times,serif" font-size="14.00">1 &#45;&gt; Port 1</text>
</g>
<!-- Sub Processor -->
<g id="node5" class="node">
<title>Sub Processor</title>
<polygon fill="none" stroke="black" points="253.25,-567 148.75,-567 148.75,-493 253.25,-493 253.25,-567"/>
<text text-anchor="middle" x="201" y="-549.7" font-family="Times,serif" font-size="14.00">Sub Processor</text>
<text text-anchor="middle" x="201" y="-533.2" font-family="Times,serif" font-size="14.00">RMC4</text>
<text text-anchor="middle" x="201" y="-516.7" font-family="Times,serif" font-size="14.00">C442681C057D</text>
<text text-anchor="middle" x="201" y="-500.2" font-family="Times,serif" font-size="14.00">10.2.32.52</text>
</g>
<!-- Sub Processor&#45;&gt;CrestronSwitch -->
<g id="edge5" class="edge">
<title>Sub Processor&#45;&gt;CrestronSwitch</title>
<path fill="none" stroke="black" d="M226.52,-492.67C236.4,-479.51 248.17,-464.86 260,-452.5 263.22,-449.13 266.64,-445.76 270.16,-442.44"/>
<polygon fill="black" stroke="black" points="272.37,-445.17 277.38,-435.83 267.64,-440 272.37,-445.17"/>
<text text-anchor="middle" x="290" y="-455.7" font-family="Times,serif" font-size="14.00">1 &#45;&gt; Port 2</text>
</g>
<!-- Domotz -->
<g id="node6" class="node">
<title>Domotz</title>
<polygon fill="none" stroke="black" points="377,-567 271,-567 271,-493 377,-493 377,-567"/>
<text text-anchor="middle" x="324" y="-549.7" font-family="Times,serif" font-size="14.00">Domotz</text>
<text text-anchor="middle" x="324" y="-533.2" font-family="Times,serif" font-size="14.00">B&#45;12</text>
<text text-anchor="middle" x="324" y="-516.7" font-family="Times,serif" font-size="14.00">F023B9E37C2B</text>
<text text-anchor="middle" x="324" y="-500.2" font-family="Times,serif" font-size="14.00">10.2.32.51</text>
</g>
<!-- Domotz&#45;&gt;CrestronSwitch -->
<g id="edge6" class="edge">
<title>Domotz&#45;&gt;CrestronSwitch</title>
<path fill="none" stroke="black" d="M324,-492.65C324,-478.22 324,-461.44 324,-446.07"/>
<polygon fill="black" stroke="black" points="327.5,-446.17 324,-436.17 320.5,-446.17 327.5,-446.17"/>
<text text-anchor="middle" x="354" y="-455.7" font-family="Times,serif" font-size="14.00">1 &#45;&gt; Port 3</text>
</g>
<!-- Main Processor -->
<g id="node7" class="node">
<title>Main Processor</title>
<polygon fill="none" stroke="black" points="501.38,-567 394.62,-567 394.62,-493 501.38,-493 501.38,-567"/>
<text text-anchor="middle" x="448" y="-549.7" font-family="Times,serif" font-size="14.00">Main Processor</text>
<text text-anchor="middle" x="448" y="-533.2" font-family="Times,serif" font-size="14.00">AP4&#45;R</text>
<text text-anchor="middle" x="448" y="-516.7" font-family="Times,serif" font-size="14.00">C442682A94ED</text>
<text text-anchor="middle" x="448" y="-500.2" font-family="Times,serif" font-size="14.00">10.2.32.53</text>
</g>
<!-- Main Processor&#45;&gt;CrestronSwitch -->
<g id="edge7" class="edge">
<title>Main Processor&#45;&gt;CrestronSwitch</title>
<path fill="none" stroke="black" d="M421.96,-492.71C411.91,-479.55 399.95,-464.89 388,-452.5 384.76,-449.15 381.33,-445.78 377.81,-442.47"/>
<polygon fill="black" stroke="black" points="380.33,-440.03 370.58,-435.87 375.61,-445.2 380.33,-440.03"/>
<text text-anchor="middle" x="433" y="-455.7" font-family="Times,serif" font-size="14.00">1 &#45;&gt; Port 4</text>
</g>
<!-- Vive 1 SE -->
<g id="node8" class="node">
<title>Vive 1 SE</title>
<polygon fill="none" stroke="black" points="392.75,-754.5 285.25,-754.5 285.25,-680.5 392.75,-680.5 392.75,-754.5"/>
<text text-anchor="middle" x="339" y="-737.2" font-family="Times,serif" font-size="14.00">Vive 1 SE</text>
<text text-anchor="middle" x="339" y="-720.7" font-family="Times,serif" font-size="14.00">HJS&#45;2</text>
<text text-anchor="middle" x="339" y="-704.2" font-family="Times,serif" font-size="14.00">685E1CE0A5C6</text>
<text text-anchor="middle" x="339" y="-687.7" font-family="Times,serif" font-size="14.00">10.2.32.107</text>
</g>
<!-- Vive 1 SE&#45;&gt;Ganahl SW167F -->
<g id="edge8" class="edge">
<title>Vive 1 SE&#45;&gt;Ganahl SW167F</title>
<path fill="none" stroke="black" d="M375.3,-680.32C392.78,-665.17 414.94,-649.01 438,-640 469.22,-627.8 484.41,-649.5 513,-632 533.54,-619.43 548.94,-597.78 559.68,-577.75"/>
<polygon fill="black" stroke="black" points="562.8,-579.32 564.19,-568.82 556.55,-576.17 562.8,-579.32"/>
<text text-anchor="middle" x="468" y="-643.2" font-family="Times,serif" font-size="14.00">1 &#45;&gt; Port 6</text>
</g>
<!-- Vive 2 SW -->
<g id="node9" class="node">
<title>Vive 2 SW</title>
<polygon fill="none" stroke="black" points="502.75,-754.5 425.25,-754.5 425.25,-680.5 502.75,-680.5 502.75,-754.5"/>
<text text-anchor="middle" x="464" y="-737.2" font-family="Times,serif" font-size="14.00">Vive 2 SW</text>
<text text-anchor="middle" x="464" y="-720.7" font-family="Times,serif" font-size="14.00">HJS&#45;2</text>
<text text-anchor="middle" x="464" y="-704.2" font-family="Times,serif" font-size="14.00">MAC TBD</text>
<text text-anchor="middle" x="464" y="-687.7" font-family="Times,serif" font-size="14.00">IP TBD</text>
</g>
<!-- Vive 2 SW&#45;&gt;Ganahl SW167F -->
<g id="edge9" class="edge">
<title>Vive 2 SW&#45;&gt;Ganahl SW167F</title>
<path fill="none" stroke="black" d="M486.45,-680.29C504.75,-650.77 530.72,-608.88 550.49,-576.98"/>
<polygon fill="black" stroke="black" points="553.32,-579.06 555.62,-568.72 547.37,-575.37 553.32,-579.06"/>
<text text-anchor="middle" x="542" y="-643.2" font-family="Times,serif" font-size="14.00">1 &#45;&gt; Port 8</text>
</g>
<!-- Vive 3 NW -->
<g id="node10" class="node">
<title>Vive 3 NW</title>
<polygon fill="none" stroke="black" points="631.25,-754.5 526.75,-754.5 526.75,-680.5 631.25,-680.5 631.25,-754.5"/>
<text text-anchor="middle" x="579" y="-737.2" font-family="Times,serif" font-size="14.00">Vive 3 NW</text>
<text text-anchor="middle" x="579" y="-720.7" font-family="Times,serif" font-size="14.00">HJS&#45;2</text>
<text text-anchor="middle" x="579" y="-704.2" font-family="Times,serif" font-size="14.00">38AB411304C2</text>
<text text-anchor="middle" x="579" y="-687.7" font-family="Times,serif" font-size="14.00">10.2.32.106</text>
</g>
<!-- Vive 3 NW&#45;&gt;Ganahl SW167F -->
<g id="edge10" class="edge">
<title>Vive 3 NW&#45;&gt;Ganahl SW167F</title>
<path fill="none" stroke="black" d="M579,-680.29C579,-651.28 579,-610.32 579,-578.64"/>
<polygon fill="black" stroke="black" points="582.5,-578.95 579,-568.95 575.5,-578.95 582.5,-578.95"/>
<text text-anchor="middle" x="609" y="-643.2" font-family="Times,serif" font-size="14.00">1 &#45;&gt; Port 2</text>
</g>
<!-- Vive 4 NE -->
<g id="node11" class="node">
<title>Vive 4 NE</title>
<polygon fill="none" stroke="black" points="760.62,-754.5 655.38,-754.5 655.38,-680.5 760.62,-680.5 760.62,-754.5"/>
<text text-anchor="middle" x="708" y="-737.2" font-family="Times,serif" font-size="14.00">Vive 4 NE</text>
<text text-anchor="middle" x="708" y="-720.7" font-family="Times,serif" font-size="14.00">HJS&#45;2</text>
<text text-anchor="middle" x="708" y="-704.2" font-family="Times,serif" font-size="14.00">38AB411304FB</text>
<text text-anchor="middle" x="708" y="-687.7" font-family="Times,serif" font-size="14.00">10.2.32.108</text>
</g>
<!-- Vive 4 NE&#45;&gt;Ganahl SW167F -->
<g id="edge11" class="edge">
<title>Vive 4 NE&#45;&gt;Ganahl SW167F</title>
<path fill="none" stroke="black" d="M682.82,-680.29C662.2,-650.64 632.91,-608.52 610.69,-576.57"/>
<polygon fill="black" stroke="black" points="613.78,-574.89 605.2,-568.67 608.04,-578.88 613.78,-574.89"/>
<text text-anchor="middle" x="697" y="-643.2" font-family="Times,serif" font-size="14.00">1 &#45;&gt; Port 4</text>
</g>
<!-- Vive 5 Warehouse -->
<g id="node12" class="node">
<title>Vive 5 Warehouse</title>
<polygon fill="none" stroke="black" points="1065.25,-754.5 948.75,-754.5 948.75,-680.5 1065.25,-680.5 1065.25,-754.5"/>
<text text-anchor="middle" x="1007" y="-737.2" font-family="Times,serif" font-size="14.00">Vive 5 Warehouse</text>
<text text-anchor="middle" x="1007" y="-720.7" font-family="Times,serif" font-size="14.00">HJS&#45;2</text>
<text text-anchor="middle" x="1007" y="-704.2" font-family="Times,serif" font-size="14.00">A406E91A17E7</text>
<text text-anchor="middle" x="1007" y="-687.7" font-family="Times,serif" font-size="14.00">IP TBD</text>
</g>
<!-- Ganahl SW201A -->
<g id="node18" class="node">
<title>Ganahl SW201A</title>
<polygon fill="none" stroke="black" points="1201.88,-567 1092.12,-567 1092.12,-493 1201.88,-493 1201.88,-567"/>
<text text-anchor="middle" x="1147" y="-549.7" font-family="Times,serif" font-size="14.00">Ganahl SW201A</text>
<text text-anchor="middle" x="1147" y="-533.2" font-family="Times,serif" font-size="14.00">FS&#45;248E&#45;FPOE</text>
<text text-anchor="middle" x="1147" y="-516.7" font-family="Times,serif" font-size="14.00">deadfacebb</text>
<text text-anchor="middle" x="1147" y="-500.2" font-family="Times,serif" font-size="14.00">xxx.xxx.x.x</text>
</g>
<!-- Vive 5 Warehouse&#45;&gt;Ganahl SW201A -->
<g id="edge12" class="edge">
<title>Vive 5 Warehouse&#45;&gt;Ganahl SW201A</title>
<path fill="none" stroke="black" d="M1034.33,-680.29C1056.71,-650.64 1088.5,-608.52 1112.61,-576.57"/>
<polygon fill="black" stroke="black" points="1115.36,-578.73 1118.59,-568.64 1109.77,-574.51 1115.36,-578.73"/>
<text text-anchor="middle" x="1097.62" y="-643.2" font-family="Times,serif" font-size="14.00">1 &#45;&gt; Port ??</text>
</g>
<!-- Vive 6 Warehouse -->
<g id="node13" class="node">
<title>Vive 6 Warehouse</title>
<polygon fill="none" stroke="black" points="1205.25,-754.5 1088.75,-754.5 1088.75,-680.5 1205.25,-680.5 1205.25,-754.5"/>
<text text-anchor="middle" x="1147" y="-737.2" font-family="Times,serif" font-size="14.00">Vive 6 Warehouse</text>
<text text-anchor="middle" x="1147" y="-720.7" font-family="Times,serif" font-size="14.00">HJS&#45;2</text>
<text text-anchor="middle" x="1147" y="-704.2" font-family="Times,serif" font-size="14.00">A406E919C4AA</text>
<text text-anchor="middle" x="1147" y="-687.7" font-family="Times,serif" font-size="14.00">10.2.32.116</text>
</g>
<!-- Vive 6 Warehouse&#45;&gt;Ganahl SW201A -->
<g id="edge13" class="edge">
<title>Vive 6 Warehouse&#45;&gt;Ganahl SW201A</title>
<path fill="none" stroke="black" d="M1147,-680.29C1147,-651.28 1147,-610.32 1147,-578.64"/>
<polygon fill="black" stroke="black" points="1150.5,-578.95 1147,-568.95 1143.5,-578.95 1150.5,-578.95"/>
<text text-anchor="middle" x="1180.38" y="-643.2" font-family="Times,serif" font-size="14.00">1 &#45;&gt; Port 21</text>
</g>
<!-- Hub 7 -->
<g id="node14" class="node">
<title>Hub 7</title>
<polygon fill="none" stroke="black" points="1306.75,-754.5 1229.25,-754.5 1229.25,-680.5 1306.75,-680.5 1306.75,-754.5"/>
<text text-anchor="middle" x="1268" y="-737.2" font-family="Times,serif" font-size="14.00">Hub 7</text>
<text text-anchor="middle" x="1268" y="-720.7" font-family="Times,serif" font-size="14.00">HJS&#45;3</text>
<text text-anchor="middle" x="1268" y="-704.2" font-family="Times,serif" font-size="14.00">MAC TBD</text>
<text text-anchor="middle" x="1268" y="-687.7" font-family="Times,serif" font-size="14.00">IP TBD</text>
</g>
<!-- Hub 7&#45;&gt;Ganahl SW201A -->
<g id="edge14" class="edge">
<title>Hub 7&#45;&gt;Ganahl SW201A</title>
<path fill="none" stroke="black" d="M1244.38,-680.29C1225.12,-650.77 1197.8,-608.88 1177,-576.98"/>
<polygon fill="black" stroke="black" points="1179.99,-575.16 1171.59,-568.7 1174.12,-578.99 1179.99,-575.16"/>
<text text-anchor="middle" x="1260.62" y="-643.2" font-family="Times,serif" font-size="14.00">1 &#45;&gt; Port ??</text>
</g>
<!-- Hub 8 -->
<g id="node15" class="node">
<title>Hub 8</title>
<polygon fill="none" stroke="black" points="1424.75,-754.5 1347.25,-754.5 1347.25,-680.5 1424.75,-680.5 1424.75,-754.5"/>
<text text-anchor="middle" x="1386" y="-737.2" font-family="Times,serif" font-size="14.00">Hub 8</text>
<text text-anchor="middle" x="1386" y="-720.7" font-family="Times,serif" font-size="14.00">HJS&#45;4</text>
<text text-anchor="middle" x="1386" y="-704.2" font-family="Times,serif" font-size="14.00">MAC TBD</text>
<text text-anchor="middle" x="1386" y="-687.7" font-family="Times,serif" font-size="14.00">IP TBD</text>
</g>
<!-- Ganahl SW301C -->
<g id="node19" class="node">
<title>Ganahl SW301C</title>
<polygon fill="none" stroke="black" points="1532.5,-567 1423.5,-567 1423.5,-493 1532.5,-493 1532.5,-567"/>
<text text-anchor="middle" x="1478" y="-549.7" font-family="Times,serif" font-size="14.00">Ganahl SW301C</text>
<text text-anchor="middle" x="1478" y="-533.2" font-family="Times,serif" font-size="14.00">FS&#45;248E&#45;FPOE</text>
<text text-anchor="middle" x="1478" y="-516.7" font-family="Times,serif" font-size="14.00">deadfaceba</text>
<text text-anchor="middle" x="1478" y="-500.2" font-family="Times,serif" font-size="14.00">tbd</text>
</g>
<!-- Hub 8&#45;&gt;Ganahl SW301C -->
<g id="edge15" class="edge">
<title>Hub 8&#45;&gt;Ganahl SW301C</title>
<path fill="none" stroke="black" d="M1397.65,-680.14C1402.18,-667.25 1407.73,-652.78 1413.75,-640 1423.8,-618.68 1436.71,-596.08 1448.32,-577.02"/>
<polygon fill="black" stroke="black" points="1451.18,-579.04 1453.45,-568.7 1445.23,-575.37 1451.18,-579.04"/>
<text text-anchor="middle" x="1445.62" y="-643.2" font-family="Times,serif" font-size="14.00">1 &#45;&gt; Port ??</text>
</g>
<!-- Hub 9 -->
<g id="node16" class="node">
<title>Hub 9</title>
<polygon fill="none" stroke="black" points="1526.75,-754.5 1449.25,-754.5 1449.25,-680.5 1526.75,-680.5 1526.75,-754.5"/>
<text text-anchor="middle" x="1488" y="-737.2" font-family="Times,serif" font-size="14.00">Hub 9</text>
<text text-anchor="middle" x="1488" y="-720.7" font-family="Times,serif" font-size="14.00">HJS&#45;5</text>
<text text-anchor="middle" x="1488" y="-704.2" font-family="Times,serif" font-size="14.00">MAC TBD</text>
<text text-anchor="middle" x="1488" y="-687.7" font-family="Times,serif" font-size="14.00">IP TBD</text>
</g>
<!-- Hub 9&#45;&gt;Ganahl SW301C -->
<g id="edge16" class="edge">
<title>Hub 9&#45;&gt;Ganahl SW301C</title>
<path fill="none" stroke="black" d="M1486.05,-680.29C1484.48,-651.28 1482.28,-610.32 1480.57,-578.64"/>
<polygon fill="black" stroke="black" points="1484.08,-578.74 1480.05,-568.94 1477.09,-579.12 1484.08,-578.74"/>
<text text-anchor="middle" x="1516.62" y="-643.2" font-family="Times,serif" font-size="14.00">1 &#45;&gt; Port ??</text>
</g>
<!-- TouchScreen -->
<g id="node17" class="node">
<title>TouchScreen</title>
<polygon fill="none" stroke="black" points="908.75,-754.5 801.25,-754.5 801.25,-680.5 908.75,-680.5 908.75,-754.5"/>
<text text-anchor="middle" x="855" y="-737.2" font-family="Times,serif" font-size="14.00">TouchScreen</text>
<text text-anchor="middle" x="855" y="-720.7" font-family="Times,serif" font-size="14.00">TSW&#45;1070R&#45;W</text>
<text text-anchor="middle" x="855" y="-704.2" font-family="Times,serif" font-size="14.00">C442681A6AB5</text>
<text text-anchor="middle" x="855" y="-687.7" font-family="Times,serif" font-size="14.00">10.2.32.125</text>
</g>
<!-- TouchScreen&#45;&gt;Ganahl SW167F -->
<g id="edge17" class="edge">
<title>TouchScreen&#45;&gt;Ganahl SW167F</title>
<path fill="none" stroke="black" d="M800.8,-680.07C755.32,-649.51 690.3,-605.81 642.41,-573.62"/>
<polygon fill="black" stroke="black" points="644.58,-570.86 634.33,-568.19 640.68,-576.67 644.58,-570.86"/>
<text text-anchor="middle" x="799.38" y="-643.2" font-family="Times,serif" font-size="14.00">1 &#45;&gt; Port 25</text>
</g>
</g>
</svg>
