<?xml version="1.0" encoding="UTF-8" standalone="no"?>
<!DOCTYPE svg PUBLIC "-//W3C//DTD SVG 1.1//EN"
 "http://www.w3.org/Graphics/SVG/1.1/DTD/svg11.dtd">
<!-- Generated by graphviz version 10.0.1 (20240210.2158)
 -->
<!-- Title: NetworkDiagram Pages: 1 -->
<svg width="1645pt" height="424pt"
 viewBox="0.00 0.00 1645.00 423.50" xmlns="http://www.w3.org/2000/svg" xmlns:xlink="http://www.w3.org/1999/xlink">
<g id="graph0" class="graph" transform="scale(1 1) rotate(0) translate(4 419.5)">
<title>NetworkDiagram</title>
<polygon fill="white" stroke="none" points="-4,4 -4,-419.5 1641,-419.5 1641,4 -4,4"/>
<!-- Ganahl SW167F -->
<g id="node1" class="node">
<title>Ganahl SW167F</title>
<polygon fill="none" stroke="black" points="327.5,-289 220,-289 220,-215 327.5,-215 327.5,-289"/>
<text text-anchor="middle" x="273.75" y="-271.7" font-family="Times,serif" font-size="14.00">Ganahl SW167F</text>
<text text-anchor="middle" x="273.75" y="-255.2" font-family="Times,serif" font-size="14.00">FS&#45;248E&#45;FPOE</text>
<text text-anchor="middle" x="273.75" y="-238.7" font-family="Times,serif" font-size="14.00">AC712E00D2F0</text>
<text text-anchor="middle" x="273.75" y="-222.2" font-family="Times,serif" font-size="14.00">IP TBD</text>
</g>
<!-- Ganahl SW167E -->
<g id="node18" class="node">
<title>Ganahl SW167E</title>
<polygon fill="none" stroke="black" points="327.88,-143.5 219.62,-143.5 219.62,-107.5 327.88,-107.5 327.88,-143.5"/>
<text text-anchor="middle" x="273.75" y="-120.45" font-family="Times,serif" font-size="14.00">Ganahl SW167E</text>
</g>
<!-- Ganahl SW167F&#45;&gt;Ganahl SW167E -->
<g id="edge1" class="edge">
<title>Ganahl SW167F&#45;&gt;Ganahl SW167E</title>
<path fill="none" stroke="black" d="M273.75,-214.65C273.75,-195.64 273.75,-172.71 273.75,-155"/>
<polygon fill="black" stroke="black" points="277.25,-155.2 273.75,-145.2 270.25,-155.2 277.25,-155.2"/>
<text text-anchor="middle" x="323.62" y="-183.7" font-family="Times,serif" font-size="14.00">Port 51 &#45;&gt; Port 52</text>
</g>
<!-- Ganahl SW167H -->
<g id="node2" class="node">
<title>Ganahl SW167H</title>
<polygon fill="none" stroke="black" points="886.75,-162.5 774.75,-162.5 774.75,-88.5 886.75,-88.5 886.75,-162.5"/>
<text text-anchor="middle" x="830.75" y="-145.2" font-family="Times,serif" font-size="14.00">Ganahl SW167H</text>
<text text-anchor="middle" x="830.75" y="-128.7" font-family="Times,serif" font-size="14.00">FS&#45;248E&#45;FPOE</text>
<text text-anchor="middle" x="830.75" y="-112.2" font-family="Times,serif" font-size="14.00">AC712E00CA4A</text>
<text text-anchor="middle" x="830.75" y="-95.7" font-family="Times,serif" font-size="14.00">IP TBD</text>
</g>
<!-- Ganahl SW167G -->
<g id="node19" class="node">
<title>Ganahl SW167G</title>
<polygon fill="none" stroke="black" points="885.62,-36 775.88,-36 775.88,0 885.62,0 885.62,-36"/>
<text text-anchor="middle" x="830.75" y="-12.95" font-family="Times,serif" font-size="14.00">Ganahl SW167G</text>
</g>
<!-- Ganahl SW167H&#45;&gt;Ganahl SW167G -->
<g id="edge2" class="edge">
<title>Ganahl SW167H&#45;&gt;Ganahl SW167G</title>
<path fill="none" stroke="black" d="M830.75,-88.19C830.75,-74.91 830.75,-60.09 830.75,-47.58"/>
<polygon fill="black" stroke="black" points="834.25,-47.93 830.75,-37.93 827.25,-47.93 834.25,-47.93"/>
<text text-anchor="middle" x="880.62" y="-57.2" font-family="Times,serif" font-size="14.00">Port 51 &#45;&gt; Port 52</text>
</g>
<!-- CrestronSwitch -->
<g id="node3" class="node">
<title>CrestronSwitch</title>
<polygon fill="none" stroke="black" points="885.25,-289 776.25,-289 776.25,-215 885.25,-215 885.25,-289"/>
<text text-anchor="middle" x="830.75" y="-271.7" font-family="Times,serif" font-size="14.00">CrestronSwitch</text>
<text text-anchor="middle" x="830.75" y="-255.2" font-family="Times,serif" font-size="14.00">CEN&#45;SW&#45;POE&#45;5</text>
<text text-anchor="middle" x="830.75" y="-238.7" font-family="Times,serif" font-size="14.00">NONE</text>
<text text-anchor="middle" x="830.75" y="-222.2" font-family="Times,serif" font-size="14.00">NO IP</text>
</g>
<!-- CrestronSwitch&#45;&gt;Ganahl SW167H -->
<g id="edge3" class="edge">
<title>CrestronSwitch&#45;&gt;Ganahl SW167H</title>
<path fill="none" stroke="black" d="M830.75,-214.65C830.75,-202 830.75,-187.6 830.75,-174.17"/>
<polygon fill="black" stroke="black" points="834.25,-174.19 830.75,-164.19 827.25,-174.19 834.25,-174.19"/>
<text text-anchor="middle" x="877.25" y="-183.7" font-family="Times,serif" font-size="14.00">Port 5 &#45;&gt; Port 14</text>
</g>
<!-- WattBox -->
<g id="node4" class="node">
<title>WattBox</title>
<polygon fill="none" stroke="black" points="699.12,-415.5 592.38,-415.5 592.38,-341.5 699.12,-341.5 699.12,-415.5"/>
<text text-anchor="middle" x="645.75" y="-398.2" font-family="Times,serif" font-size="14.00">WattBox</text>
<text text-anchor="middle" x="645.75" y="-381.7" font-family="Times,serif" font-size="14.00">WB&#45;250&#45;IPW&#45;2</text>
<text text-anchor="middle" x="645.75" y="-365.2" font-family="Times,serif" font-size="14.00">143FC3037CBB</text>
<text text-anchor="middle" x="645.75" y="-348.7" font-family="Times,serif" font-size="14.00">10.2.32.50</text>
</g>
<!-- WattBox&#45;&gt;CrestronSwitch -->
<g id="edge4" class="edge">
<title>WattBox&#45;&gt;CrestronSwitch</title>
<path fill="none" stroke="black" d="M687.52,-341.15C701.5,-329.68 717.43,-317.31 732.75,-307 743.22,-299.95 754.69,-293.01 765.97,-286.56"/>
<polygon fill="black" stroke="black" points="767.49,-289.72 774.49,-281.78 764.06,-283.62 767.49,-289.72"/>
<text text-anchor="middle" x="762.75" y="-310.2" font-family="Times,serif" font-size="14.00">1 &#45;&gt; Port 1</text>
</g>
<!-- Sub Processor -->
<g id="node5" class="node">
<title>Sub Processor</title>
<polygon fill="none" stroke="black" points="822,-415.5 717.5,-415.5 717.5,-341.5 822,-341.5 822,-415.5"/>
<text text-anchor="middle" x="769.75" y="-398.2" font-family="Times,serif" font-size="14.00">Sub Processor</text>
<text text-anchor="middle" x="769.75" y="-381.7" font-family="Times,serif" font-size="14.00">RMC4</text>
<text text-anchor="middle" x="769.75" y="-365.2" font-family="Times,serif" font-size="14.00">C442681C057D</text>
<text text-anchor="middle" x="769.75" y="-348.7" font-family="Times,serif" font-size="14.00">10.2.32.52</text>
</g>
<!-- Sub Processor&#45;&gt;CrestronSwitch -->
<g id="edge5" class="edge">
<title>Sub Processor&#45;&gt;CrestronSwitch</title>
<path fill="none" stroke="black" d="M787.56,-341.15C793.95,-328.11 801.24,-313.23 807.99,-299.45"/>
<polygon fill="black" stroke="black" points="811.1,-301.05 812.36,-290.53 804.82,-297.97 811.1,-301.05"/>
<text text-anchor="middle" x="834.75" y="-310.2" font-family="Times,serif" font-size="14.00">1 &#45;&gt; Port 2</text>
</g>
<!-- Domotz -->
<g id="node6" class="node">
<title>Domotz</title>
<polygon fill="none" stroke="black" points="945.75,-415.5 839.75,-415.5 839.75,-341.5 945.75,-341.5 945.75,-415.5"/>
<text text-anchor="middle" x="892.75" y="-398.2" font-family="Times,serif" font-size="14.00">Domotz</text>
<text text-anchor="middle" x="892.75" y="-381.7" font-family="Times,serif" font-size="14.00">B&#45;12</text>
<text text-anchor="middle" x="892.75" y="-365.2" font-family="Times,serif" font-size="14.00">F023B9E37C2B</text>
<text text-anchor="middle" x="892.75" y="-348.7" font-family="Times,serif" font-size="14.00">10.2.32.51</text>
</g>
<!-- Domotz&#45;&gt;CrestronSwitch -->
<g id="edge6" class="edge">
<title>Domotz&#45;&gt;CrestronSwitch</title>
<path fill="none" stroke="black" d="M882.58,-341.19C878.86,-329.95 874.2,-317.72 868.75,-307 867.38,-304.31 865.9,-301.61 864.33,-298.92"/>
<polygon fill="black" stroke="black" points="867.41,-297.25 859.17,-290.59 861.46,-300.94 867.41,-297.25"/>
<text text-anchor="middle" x="904.75" y="-310.2" font-family="Times,serif" font-size="14.00">1 &#45;&gt; Port 3</text>
</g>
<!-- Main Processor -->
<g id="node7" class="node">
<title>Main Processor</title>
<polygon fill="none" stroke="black" points="1070.12,-415.5 963.38,-415.5 963.38,-341.5 1070.12,-341.5 1070.12,-415.5"/>
<text text-anchor="middle" x="1016.75" y="-398.2" font-family="Times,serif" font-size="14.00">Main Processor</text>
<text text-anchor="middle" x="1016.75" y="-381.7" font-family="Times,serif" font-size="14.00">AP4&#45;R</text>
<text text-anchor="middle" x="1016.75" y="-365.2" font-family="Times,serif" font-size="14.00">C442682A94ED</text>
<text text-anchor="middle" x="1016.75" y="-348.7" font-family="Times,serif" font-size="14.00">10.2.32.53</text>
</g>
<!-- Main Processor&#45;&gt;CrestronSwitch -->
<g id="edge7" class="edge">
<title>Main Processor&#45;&gt;CrestronSwitch</title>
<path fill="none" stroke="black" d="M980.78,-341.25C968.11,-329.53 953.37,-316.99 938.75,-307 925.39,-297.87 910.27,-289.34 895.66,-281.87"/>
<polygon fill="black" stroke="black" points="897.52,-278.89 887.01,-277.56 894.4,-285.16 897.52,-278.89"/>
<text text-anchor="middle" x="988.75" y="-310.2" font-family="Times,serif" font-size="14.00">1 &#45;&gt; Port 4</text>
</g>
<!-- Vive 1 SE -->
<g id="node8" class="node">
<title>Vive 1 SE</title>
<polygon fill="none" stroke="black" points="107.5,-415.5 0,-415.5 0,-341.5 107.5,-341.5 107.5,-415.5"/>
<text text-anchor="middle" x="53.75" y="-398.2" font-family="Times,serif" font-size="14.00">Vive 1 SE</text>
<text text-anchor="middle" x="53.75" y="-381.7" font-family="Times,serif" font-size="14.00">HJS&#45;2</text>
<text text-anchor="middle" x="53.75" y="-365.2" font-family="Times,serif" font-size="14.00">685E1CE0A5C6</text>
<text text-anchor="middle" x="53.75" y="-348.7" font-family="Times,serif" font-size="14.00">10.2.32.107</text>
</g>
<!-- Vive 1 SE&#45;&gt;Ganahl SW167F -->
<g id="edge8" class="edge">
<title>Vive 1 SE&#45;&gt;Ganahl SW167F</title>
<path fill="none" stroke="black" d="M89.43,-341.2C102.57,-329.2 118.08,-316.51 133.75,-307 157.03,-292.88 184.64,-281.28 209.17,-272.51"/>
<polygon fill="black" stroke="black" points="210.1,-275.89 218.4,-269.3 207.8,-269.28 210.1,-275.89"/>
<text text-anchor="middle" x="163.75" y="-310.2" font-family="Times,serif" font-size="14.00">1 &#45;&gt; Port 6</text>
</g>
<!-- Vive 2 SW -->
<g id="node9" class="node">
<title>Vive 2 SW</title>
<polygon fill="none" stroke="black" points="203.5,-415.5 126,-415.5 126,-341.5 203.5,-341.5 203.5,-415.5"/>
<text text-anchor="middle" x="164.75" y="-398.2" font-family="Times,serif" font-size="14.00">Vive 2 SW</text>
<text text-anchor="middle" x="164.75" y="-381.7" font-family="Times,serif" font-size="14.00">HJS&#45;2</text>
<text text-anchor="middle" x="164.75" y="-365.2" font-family="Times,serif" font-size="14.00">MAC TBD</text>
<text text-anchor="middle" x="164.75" y="-348.7" font-family="Times,serif" font-size="14.00">IP TBD</text>
</g>
<!-- Vive 2 SW&#45;&gt;Ganahl SW167F -->
<g id="edge9" class="edge">
<title>Vive 2 SW&#45;&gt;Ganahl SW167F</title>
<path fill="none" stroke="black" d="M184.98,-341.24C192.12,-329.76 200.66,-317.38 209.75,-307 212.63,-303.71 215.72,-300.45 218.92,-297.25"/>
<polygon fill="black" stroke="black" points="221.17,-299.95 225.99,-290.51 216.34,-294.88 221.17,-299.95"/>
<text text-anchor="middle" x="239.75" y="-310.2" font-family="Times,serif" font-size="14.00">1 &#45;&gt; Port 8</text>
</g>
<!-- Vive 3 NW -->
<g id="node10" class="node">
<title>Vive 3 NW</title>
<polygon fill="none" stroke="black" points="326,-415.5 221.5,-415.5 221.5,-341.5 326,-341.5 326,-415.5"/>
<text text-anchor="middle" x="273.75" y="-398.2" font-family="Times,serif" font-size="14.00">Vive 3 NW</text>
<text text-anchor="middle" x="273.75" y="-381.7" font-family="Times,serif" font-size="14.00">HJS&#45;2</text>
<text text-anchor="middle" x="273.75" y="-365.2" font-family="Times,serif" font-size="14.00">38AB411304C2</text>
<text text-anchor="middle" x="273.75" y="-348.7" font-family="Times,serif" font-size="14.00">10.2.32.106</text>
</g>
<!-- Vive 3 NW&#45;&gt;Ganahl SW167F -->
<g id="edge10" class="edge">
<title>Vive 3 NW&#45;&gt;Ganahl SW167F</title>
<path fill="none" stroke="black" d="M273.75,-341.15C273.75,-328.5 273.75,-314.1 273.75,-300.67"/>
<polygon fill="black" stroke="black" points="277.25,-300.69 273.75,-290.69 270.25,-300.69 277.25,-300.69"/>
<text text-anchor="middle" x="303.75" y="-310.2" font-family="Times,serif" font-size="14.00">1 &#45;&gt; Port 2</text>
</g>
<!-- Vive 4 NE -->
<g id="node11" class="node">
<title>Vive 4 NE</title>
<polygon fill="none" stroke="black" points="449.38,-415.5 344.12,-415.5 344.12,-341.5 449.38,-341.5 449.38,-415.5"/>
<text text-anchor="middle" x="396.75" y="-398.2" font-family="Times,serif" font-size="14.00">Vive 4 NE</text>
<text text-anchor="middle" x="396.75" y="-381.7" font-family="Times,serif" font-size="14.00">HJS&#45;2</text>
<text text-anchor="middle" x="396.75" y="-365.2" font-family="Times,serif" font-size="14.00">38AB411304FB</text>
<text text-anchor="middle" x="396.75" y="-348.7" font-family="Times,serif" font-size="14.00">10.2.32.108</text>
</g>
<!-- Vive 4 NE&#45;&gt;Ganahl SW167F -->
<g id="edge11" class="edge">
<title>Vive 4 NE&#45;&gt;Ganahl SW167F</title>
<path fill="none" stroke="black" d="M368.49,-341.31C359.1,-329.96 348.34,-317.63 337.75,-307 334.4,-303.64 330.87,-300.26 327.25,-296.92"/>
<polygon fill="black" stroke="black" points="329.6,-294.32 319.83,-290.23 324.92,-299.52 329.6,-294.32"/>
<text text-anchor="middle" x="381.75" y="-310.2" font-family="Times,serif" font-size="14.00">1 &#45;&gt; Port 4</text>
</g>
<!-- Vive 5 Warehouse -->
<g id="node12" class="node">
<title>Vive 5 Warehouse</title>
<polygon fill="none" stroke="black" points="1205,-415.5 1088.5,-415.5 1088.5,-341.5 1205,-341.5 1205,-415.5"/>
<text text-anchor="middle" x="1146.75" y="-398.2" font-family="Times,serif" font-size="14.00">Vive 5 Warehouse</text>
<text text-anchor="middle" x="1146.75" y="-381.7" font-family="Times,serif" font-size="14.00">HJS&#45;2</text>
<text text-anchor="middle" x="1146.75" y="-365.2" font-family="Times,serif" font-size="14.00">A406E91A17E7</text>
<text text-anchor="middle" x="1146.75" y="-348.7" font-family="Times,serif" font-size="14.00">IP TBD</text>
</g>
<!-- Ganahl SW201A -->
<g id="node20" class="node">
<title>Ganahl SW201A</title>
<polygon fill="none" stroke="black" points="1336.62,-270 1226.88,-270 1226.88,-234 1336.62,-234 1336.62,-270"/>
<text text-anchor="middle" x="1281.75" y="-246.95" font-family="Times,serif" font-size="14.00">Ganahl SW201A</text>
</g>
<!-- Vive 5 Warehouse&#45;&gt;Ganahl SW201A -->
<g id="edge12" class="edge">
<title>Vive 5 Warehouse&#45;&gt;Ganahl SW201A</title>
<path fill="none" stroke="black" d="M1178.47,-341.3C1188.95,-329.95 1200.9,-317.62 1212.5,-307 1223.77,-296.68 1236.83,-286.17 1248.55,-277.19"/>
<polygon fill="black" stroke="black" points="1250.52,-280.09 1256.39,-271.27 1246.3,-274.5 1250.52,-280.09"/>
<text text-anchor="middle" x="1244.38" y="-310.2" font-family="Times,serif" font-size="14.00">1 &#45;&gt; Port ??</text>
</g>
<!-- Vive 6 Warehouse -->
<g id="node13" class="node">
<title>Vive 6 Warehouse</title>
<polygon fill="none" stroke="black" points="1340,-415.5 1223.5,-415.5 1223.5,-341.5 1340,-341.5 1340,-415.5"/>
<text text-anchor="middle" x="1281.75" y="-398.2" font-family="Times,serif" font-size="14.00">Vive 6 Warehouse</text>
<text text-anchor="middle" x="1281.75" y="-381.7" font-family="Times,serif" font-size="14.00">HJS&#45;2</text>
<text text-anchor="middle" x="1281.75" y="-365.2" font-family="Times,serif" font-size="14.00">A406E919C4AA</text>
<text text-anchor="middle" x="1281.75" y="-348.7" font-family="Times,serif" font-size="14.00">10.2.32.116</text>
</g>
<!-- Vive 6 Warehouse&#45;&gt;Ganahl SW201A -->
<g id="edge13" class="edge">
<title>Vive 6 Warehouse&#45;&gt;Ganahl SW201A</title>
<path fill="none" stroke="black" d="M1281.75,-341.15C1281.75,-322.14 1281.75,-299.21 1281.75,-281.5"/>
<polygon fill="black" stroke="black" points="1285.25,-281.7 1281.75,-271.7 1278.25,-281.7 1285.25,-281.7"/>
<text text-anchor="middle" x="1315.12" y="-310.2" font-family="Times,serif" font-size="14.00">1 &#45;&gt; Port 21</text>
</g>
<!-- Hub 7 -->
<g id="node14" class="node">
<title>Hub 7</title>
<polygon fill="none" stroke="black" points="1435.5,-415.5 1358,-415.5 1358,-341.5 1435.5,-341.5 1435.5,-415.5"/>
<text text-anchor="middle" x="1396.75" y="-398.2" font-family="Times,serif" font-size="14.00">Hub 7</text>
<text text-anchor="middle" x="1396.75" y="-381.7" font-family="Times,serif" font-size="14.00">HJS&#45;3</text>
<text text-anchor="middle" x="1396.75" y="-365.2" font-family="Times,serif" font-size="14.00">MAC TBD</text>
<text text-anchor="middle" x="1396.75" y="-348.7" font-family="Times,serif" font-size="14.00">IP TBD</text>
</g>
<!-- Hub 7&#45;&gt;Ganahl SW201A -->
<g id="edge14" class="edge">
<title>Hub 7&#45;&gt;Ganahl SW201A</title>
<path fill="none" stroke="black" d="M1377.61,-341.3C1370.6,-329.71 1362.08,-317.24 1352.75,-307 1342.71,-295.98 1330.18,-285.62 1318.45,-276.97"/>
<polygon fill="black" stroke="black" points="1320.69,-274.26 1310.51,-271.3 1316.62,-279.96 1320.69,-274.26"/>
<text text-anchor="middle" x="1397.38" y="-310.2" font-family="Times,serif" font-size="14.00">1 &#45;&gt; Port ??</text>
</g>
<!-- Hub 8 -->
<g id="node15" class="node">
<title>Hub 8</title>
<polygon fill="none" stroke="black" points="1531.5,-415.5 1454,-415.5 1454,-341.5 1531.5,-341.5 1531.5,-415.5"/>
<text text-anchor="middle" x="1492.75" y="-398.2" font-family="Times,serif" font-size="14.00">Hub 8</text>
<text text-anchor="middle" x="1492.75" y="-381.7" font-family="Times,serif" font-size="14.00">HJS&#45;4</text>
<text text-anchor="middle" x="1492.75" y="-365.2" font-family="Times,serif" font-size="14.00">MAC TBD</text>
<text text-anchor="middle" x="1492.75" y="-348.7" font-family="Times,serif" font-size="14.00">IP TBD</text>
</g>
<!-- Ganahl SW301C -->
<g id="node21" class="node">
<title>Ganahl SW301C</title>
<polygon fill="none" stroke="black" points="1595.25,-270 1486.25,-270 1486.25,-234 1595.25,-234 1595.25,-270"/>
<text text-anchor="middle" x="1540.75" y="-246.95" font-family="Times,serif" font-size="14.00">Ganahl SW301C</text>
</g>
<!-- Hub 8&#45;&gt;Ganahl SW301C -->
<g id="edge15" class="edge">
<title>Hub 8&#45;&gt;Ganahl SW301C</title>
<path fill="none" stroke="black" d="M1493.75,-341.13C1494.98,-329.89 1497.29,-317.67 1501.5,-307 1505.4,-297.13 1511.52,-287.41 1517.79,-279"/>
<polygon fill="black" stroke="black" points="1520.42,-281.33 1523.87,-271.31 1514.93,-276.98 1520.42,-281.33"/>
<text text-anchor="middle" x="1533.38" y="-310.2" font-family="Times,serif" font-size="14.00">1 &#45;&gt; Port ??</text>
</g>
<!-- Hub 9 -->
<g id="node16" class="node">
<title>Hub 9</title>
<polygon fill="none" stroke="black" points="1627.5,-415.5 1550,-415.5 1550,-341.5 1627.5,-341.5 1627.5,-415.5"/>
<text text-anchor="middle" x="1588.75" y="-398.2" font-family="Times,serif" font-size="14.00">Hub 9</text>
<text text-anchor="middle" x="1588.75" y="-381.7" font-family="Times,serif" font-size="14.00">HJS&#45;5</text>
<text text-anchor="middle" x="1588.75" y="-365.2" font-family="Times,serif" font-size="14.00">MAC TBD</text>
<text text-anchor="middle" x="1588.75" y="-348.7" font-family="Times,serif" font-size="14.00">IP TBD</text>
</g>
<!-- Hub 9&#45;&gt;Ganahl SW301C -->
<g id="edge16" class="edge">
<title>Hub 9&#45;&gt;Ganahl SW301C</title>
<path fill="none" stroke="black" d="M1578.56,-341.28C1575.14,-330.17 1571.08,-317.97 1566.75,-307 1563.26,-298.15 1558.95,-288.74 1554.85,-280.29"/>
<polygon fill="black" stroke="black" points="1558.1,-278.97 1550.51,-271.58 1551.83,-282.09 1558.1,-278.97"/>
<text text-anchor="middle" x="1604.38" y="-310.2" font-family="Times,serif" font-size="14.00">1 &#45;&gt; Port ??</text>
</g>
<!-- TouchScreen -->
<g id="node17" class="node">
<title>TouchScreen</title>
<polygon fill="none" stroke="black" points="574.5,-415.5 467,-415.5 467,-341.5 574.5,-341.5 574.5,-415.5"/>
<text text-anchor="middle" x="520.75" y="-398.2" font-family="Times,serif" font-size="14.00">TouchScreen</text>
<text text-anchor="middle" x="520.75" y="-381.7" font-family="Times,serif" font-size="14.00">TSW&#45;1070R&#45;W</text>
<text text-anchor="middle" x="520.75" y="-365.2" font-family="Times,serif" font-size="14.00">C442681A6AB5</text>
<text text-anchor="middle" x="520.75" y="-348.7" font-family="Times,serif" font-size="14.00">10.2.32.125</text>
</g>
<!-- TouchScreen&#45;&gt;Ganahl SW167F -->
<g id="edge17" class="edge">
<title>TouchScreen&#45;&gt;Ganahl SW167F</title>
<path fill="none" stroke="black" d="M471.44,-341.02C454.32,-329.28 434.67,-316.78 415.75,-307 391.36,-294.39 363.33,-283.1 338.65,-274.15"/>
<polygon fill="black" stroke="black" points="339.95,-270.9 329.36,-270.84 337.61,-277.5 339.95,-270.9"/>
<text text-anchor="middle" x="477.12" y="-310.2" font-family="Times,serif" font-size="14.00">1 &#45;&gt; Port 25</text>
</g>
</g>
</svg>
